<mxfile host="65bd71144e">
    <diagram id="Thr566Uqf6sOKkXyT7u7" name="Page-1">
        <mxGraphModel dx="1572" dy="1488" grid="1" gridSize="10" guides="1" tooltips="1" connect="1" arrows="1" fold="1" page="1" pageScale="1" pageWidth="850" pageHeight="1100" math="0" shadow="0">
            <root>
                <mxCell id="0"/>
                <mxCell id="1" parent="0"/>
                <mxCell id="2" value="Nivetha is a good girl&amp;nbsp;" style="ellipse;whiteSpace=wrap;html=1;" vertex="1" parent="1">
                    <mxGeometry x="-370" y="-350" width="270" height="80" as="geometry"/>
                </mxCell>
                <mxCell id="3" value="" style="shape=stencil(lVnJcls3EPwaXqewL2fH+Q9XWY5YUSSXrGx/n0YxeCYaZMu+URSaAGZ6ehac4odvj5++PpyC+/b2+vL7w9/nz2+Pp/jLKYTz8+PD6/kNn07x4yl++PLy+vDb68ufz58vf3/9NFaOT3+8/DV+4Z8LLkXrcaCC+/fyjU/mLt/8egE8nZ+vALFb6xugCkC2mBkQFMDP37sClHYfELKVsAKyVXGH4KyUFVAtlfsA/DvQHbrFIADR2goI3poXAGdpvXQo5vN9QLO+rh9mc2p9Wd0Wq3mxvptbL5CCpaTW1/U8qVlWFnJW2wLIyZrwsg8WVqcVZ12cCD4gExWYVAGytZVHFYdUTqtW1h1qsiyoDeKFtAKatGqIltfwbN6SonbleG7Riopnb92vgGxBXDqW6aYDUGb83QRAYv4n5gFoUjGys7h6unXLgqtgTlod1505YdbcppuuAIqtJbCnAegiPEG1vFqpe/NCYurm6e6llcCcul3aC0DbuVRnDN4GFKsrWxvoLcwKv1JuaDhSF6LhWFcRQEGwFYC2cqn0+RO3AX6q6AGIkq0AUIiCLEEJ5Q4I1tWlcaTVD5DKJI4E9rc1RKHFKqbhV7o0xF4JGajhVy5BFoomX14BSFfKSvBrXK2EhKgCqB46d5VylS6VyjLjizkFCDMBHgCYQQByYRFAEusigECEGhmgQhREqKunR9YTR0ow63bpKsgH5nSqlapltYNnbR1ZT+yAArEnBqhaKaI0SXwHleNAZi7f8uTvPYAns0Yp9wA4cpwu3wBIdAcn5R6XDiSVU2zvWTWvjtYRnRx7ocrzjOou83rF1MhSX2c6ur0+m9vuq86TNxbBoCLWUmGBGS4TFgWAa3qQQigSjkQl9KCd2iFZ3YIzqR2iJQIgdEQkIDj3aFbBCVrs0axKK/DObcGpigZEQs9spaz0onL+HA2l3oGFPljUAPa00xKGO6wC0yX3hpHWxNBkLzbWl59YD154at5kQ5ygRmvx6WSwZURKpfXqPLly1nGSE8WzuAQpLiieyZ5JlpFlaz7L7KbvFiNrPuhSTFHt+NWekApVdaJJIwIhalRNiFK7rzsEzWnUhJQ0Q5bq1dEjrXeOQVfOjctU0FYW852Ll3SMfu6MABxHMlo/1WBgC2rpc5aV8ACsZwIX37kE1RaoK1UFBoCnGUCU1fywKwG6TM29cPSgDVPhBld76tve8dw2cethEvhegxHXNNKznMW0MAXoADQ53qqwOvXPXce0m276LvJaxaAyMfIW6tZoGNhMfY757ulk33ZQ86EcmX0ABKX0nctI2FU5YtRhjQFqAjVyIQGq7PQgK27jRhMBEfZRiS4AII2U3kBXNTXwbfZE16MSpUybWEKgVYeBWpMaaKQApX19tqaHCOh6+0gfx3rkB1Wf8/qi+8LIolTczJG3L8yjIVA3ifWO16P8LiLWHLcLqFxVb75lkpikbDseAI4BuWB14AoAFlNRkLeO80ind/iwVxjvDLfpvQAUVO82Y3+itKwJQ+COturB89Z/Fd3QOh6mlFlU3l6/PSOhfxMRub9T6aHC/hCma8jR3PH6rJQ6s2ghpFXNX3iGV2VZMeKJxvLyfQc9Aj3wtFkq3VtPbVrXg6a9rXOzHf7BA4HRqnHcbzz6QA3wW8evEs3uszEiUDtspBhhrLz2s8+vPwDAh++vvV/OT0+Xx+Lr//PrML66vCzHj/8B);lineShape=1;" vertex="1" parent="1">
                    <mxGeometry x="-623.6443469383361" y="-341.4229932158121" width="66.56375980400503" height="58.767748815833556" as="geometry"/>
                </mxCell>
                <mxCell id="4" value="" style="shape=stencil(7VrLchs3EPwaXlF4P86O8x+ushyxokguWXn9fRphAVo0yGY5pxx8o9czAmYw092Y3VP48O3x09eHk7ff3l5ffn348/z57fEUfjp5f35+fHg9v+HXKXw8hQ9fXl4ffnl9+f358+XfXz91y/7rt5c/+l/46+IXg7G+e3n79+WJNy7+++Dni/3T+Xm1T26xr8ZZYR+NjYu9CyZn6ZDK6lCMbcIhGbs6eGuqdkh5dYgmV+nQ2upQjVdJyiavSQ3BeLWlYoJdHbJJQTgg63V1aCYm4dCMS4tD9CaJLSXLae1pECcNBwq6r6kd6prWhCwV6RDXWkrFJBX0rM3hkN0o31vFF9bqzskUtYIzdc1SriNvVx1wTH5doSAqcdIohLhmqXhTRLWi1NpaGgUdIlbwzeQ1raWaKrLk89jxxACdVo9zXUujItFqS3ZDmWyKqCVgRFnLuzZTRHm7xLjX/Kjf6w7OlDXolkwWpVFNJvs6snDVPo+/Nu3R0eKc08Csg31VoMSn7CxaXOQUSL8t0MQCnoEb9lm0ghs8cLD3ooqsaZ4TmkSCrAm0n2KqOABkg/aTTRP7n9k72Fu5H0/26U68dGAtmqh6YFDMtA+yZ0D0ge2dYOaNELB/lU9vPOXTD9K6UaBxb2Gxf5wO2eeBfFft22DUaR9kPbuphA4wp7SRi6asGepAKiACqJWJDLLk2N4DhO1RNn1v4u9iD2SVqhr8pGALOFeIY6HXRNDBMqHlqCnTm7AGndEaCrjSqOODTlCaM5SR9emQtEiFdFm3BOlSRAwQFqQT0ozqll4j+oCDU3otmJB5SwouUmZ8QdBSETbuh1RlP0BskdbBwSlhkQNDMJ4oDoQ6oy3lbJwiWZw0bamOJ1cdyibw8KSJFSC2CPbQokGUBjCikIPWOtXzSeNPKCCraWDEEchEWmvlC0+d1XUdWt0mv5JUhKCyRmBcTRBpxQqsLqI8BzjQhafpFu0OxJ9T0dxyyOTgxgXluoMfsDUdoHPFSWPHlWQwNJ46h8QdBwcZwwYCVYs2aKiWOQYn4B6izgZ2aCqGtgltb6yopYOOPSoZgWRdKZMDelQ7EKMg01EFURmYkOmgGiIPpXBwUMzeN0ByuEg5jxCt4xVkQ3gGJjg43RCcVtSjUmRujFEO53BnBdasXmr03pF0iZmbvBU0q1YrBRNKjdQJHNR1GyFSffeWU0g2s35salWtcypycGiqR0FBjmNQ+gf9QCt0MFTVCof4PQ6dDjb4DooV04DS48EpB8daGmtaxex1YO+B5BSSQQpQaYBGVU9DWhCzY5NRy5l9dKOkAKS2JzmTxx3kloZzK8xAzqhbKzQhTVcRlZrEpG2QAUmmgu5Kd91Sl4F3Bo10RfHyph4LX9UhXOVUPDLJZafnhpa1A04mirSGbX6Ls/ciS6HwzK0PGtU1KzKhlCDFBu5lka6K4Dh1GW08oShNMrtPPPBFPxQRtPc8FkfHZTUGbBu2JkkoLm+SrErR5yKfwx2V6BzPQe7MfepIyYGm1UT5x6Dxx6Dxfz1o3F4xdlGmC3oTVGo/beDgtC+SP5zjgqhRjv5d5JbpYkNEcGUQqDUhzoAIp08OFZRGltp9LKEGgXXw0YE/5HunrW3u8HgI4wp1GN7IyWFhxQaWVeIlbjMAqBNFOP1tOI3pon6tGrYVrJTa0fM8Kermh4OnF7dBDpURNEntLjbUu2TLM7GuHZQ8sgzAOEol5uEQthfoqrzhQJDhtcSDPCprabyj1C0HKj70oJrF7C9u3Z2xdWV5VOUoBkmnd89eslq392SvvpOAPc3dnfzEIEwSe7dX1yPES7Rg5S01bNcpO67etw6AaGHy6K0aIhrUKmSf6Vt9SXD8Psnqbzzm8bzbyx7wfMd2Ol7P+XRStfyHL3/u2OPH+2dGX85PT5evlI7/z58l4dHlk6bw8R8=);lineShape=1;" vertex="1" parent="1">
                    <mxGeometry x="-615.3881559313331" y="-287.0149882951778" width="70.17615500047714" height="83.78464216713496" as="geometry"/>
                </mxCell>
                <mxCell id="5" value="" style="shape=stencil(lVjZchoxEPwaXqc0uufZcf7DVcaBCjEujHP8fYYQ4R1pt4G3ZZnWztlqaRUe3jdPb+uVd+/Hw/77+tf2+bhZhS8r77evm/Vhe9SnVXhchYeX/WH97bD/eH0+/357Olmenn7sf55W+H3GeUr1BPLuz/lFqhTCvzdfz/a77evEPlMe7P+/mbVnJu8soFCKAJAoZwvIxAwAQsVbgAaVlgE+UE0GEDPVAgCVxAKCUAZfCJFcsABueZ4HCHn7BR8pgyzFSIkNgNVJDwDSu8S6hCwDUqAYLYCpOAAoVK1L0tI230lMVYx9JQY5yomqjUD7AqQoC8WuzORAhoqn0gUMu6JkcnZ9RwImpwiF3NmjAtRALnb2EfhTtYldbw/qJY58v77PwD5T8p29Q+sXyl3HUQT5l9rbJ0gUIi28SYOiAiigWu5S6kAzw+4S4WUsa2OnpU8UW+NQ2mQvAdj6pJNdQFdoloKdsqRlRgB1oFhAaI2+VGe2fZEieVS41A9C0slBWYrEtpOUgGHllIs6PsWVU4CzQV8h4BGgOyOsw+CS8mlElR6CLth+yKpvlH9j2RwxKsLQFw7uOKfGs/6Hxt83drZAuhtHhwsxaIq56UxNCtxIALpRI0odKSZ6XLSBw2KlirI6kKSKF7mLhXU6A+rsuwHc77NX5r/WxtMTgANZqrEN74SSkFSoTCw9oIIYSmn6bEp6aDMP5MPwBVCHPPRSSjCtObckTnStgIHOfnCpNkm2JMCkY3qBTJ8GIZxdq/2SiOwkkjoJAanXGJqGCLIUVYPYSheGtBFSf74olRwAnFSpLZwKJwdcUtkona71TenOA4YYpEAAD8p2wm03nqqUqvI9xzZlKqQahmOhYB7jRloTe6R7mIJt1U+amrV3bRgv9ljEuP7womoXdYXulXYSamrb0YJ9t/UoRaHDxWBf8OFl8EfHAIn5Id5cYFMP+cwBivOhXsoU6AQ89EPCx9N7ryGu2+vD553Hy3a3O1+ZTP/v70j01fl+JTz+BQ==);lineShape=1;" vertex="1" parent="1">
                    <mxGeometry x="-625.3908958476063" y="-272.76261756501367" width="84.92255870595022" height="10.896241053237873" as="geometry"/>
                </mxCell>
                <mxCell id="6" value="" style="shape=stencil(7VrLchw3DPyavaL4fpwd5z9cZTnaiiK5ZDmJ/95gtkgNm8NW6eRLbusRe4YAgUYD9MV/+Hb/6evdxZlvL89Pf979c/38cn/xv12cuz7e3z1fX/TXxX+8+A9fnp7v/nh++v74+fbvr5/ayvbrr6e/2xv+veGM5NhAzvy4PchOav7vye+39Q/Xx8P6IM7M660Yu19vvaQ0AVKUYvYAFyWGCRCrRLIjHyTYGRCkVmJC6BvogFAluT0gRqkA8N1tp4CUxNYJ4IuEtAfkKCbPAC+FGF2cuNlLrvZNngOy5DIDkhRycNVK8TMgiCVfqEH87CVnpRK31iR+3pItfZPngCU0NFgS8VJ1iw0afCQ01GjjEBDJlkqRWtBLlbi1JAw+56V6Agg9cgbASWJfcGIDnoNjoWHQaFslky/kInZ2qx6cCQSQ0AarT4hbs+9OHIAghmScslCZM84aarTSXJiJz7oeXTuABS9ZSjNtSwEBlrnV9nPtAE1pRhoWTSiSmMlW/Ewy+a39wHqeC20/8ynrmXEHJUg2yewE1KFwZBLZ+x2GqRY7wkdrSBixzF7dboX1hvnfr/uxbP/KVeifQJiipeXMRVpVGHeZHr+v8eNJvJWRgoeAzqxIZXEAiOIYX5slKQs94uolgIs0qAhPaAmBHFP6jcToqjkC9BtoFlStCEuRYmlszQibUfy1lLLSXLAOBp4JqxEh9sq4cxOkcjRUtbWDgNhL4phfLZ5cGul6HkxV3BytqXSrdtHn53TLKl5Z4Yw9dAagUgGjCeFnG/RJYhmnlXvekrrBEcpbU1TPnoWGAtIcGrV2R+8AziGANQDqE2C9BmBlpIpfAI7xWEWeUaNZj6HEB0T5Ki13gAwATWpG3QqY80GlJa2FpYu6ATBUbqvRcA5l+G0HSDNrqBYNhPqazPMIYIK+LGysAOZWBYDiaUnLtmRRqqqXWCemAMhpPQfPv4DBF2gJaoDZrRpLlGZsFzkDkCm3qpcwlirVYQoAHaaAwoRhxeA71JgdIi4sEJlW0i0vORoYbWiOFvQrVbeli8EBiD1atgCIDU/5vm0JDmIo3q3Rs3jQ+C5veOldgDKGKQPguqN3FQVs0F6LeUkrFGiyJsNZuCZUJ22Aw8I1Y82KvARpzhsQG54KV815cGtI/ex3ownocFUw0S9EySDJEgcUlAI+8llGQhbwKkS5JIPJm7e9Eu8kGZRR7ScD03DLObixye0sYzbaDUefA/yivjXjuP4BWWlrr2LnGZfxCzZ1Pb5rssCt2qPQL/yiwQGjmbPBAeOxs8HBuwYB+a39/D84+JWDg9Bb2lf/sCzTpAF6jJQotHBio0TtbVkMVU0qL2oBEsDwJiagVtCMYV291igDAMcBFTto6+mwRKUECCQFML2jRQ0uGey42NhOw4EbI2Vf1aVuARRe1HCS7GjiN0kHJSfTVq8GtEGpi8kX9RIUNT+ajq0aWW5W6ER/DNkOpZ819a2CzFsKhgJS6pFzmMY4ks9xaI/DNIa1SSHgrYS+gtUoHzohDpFn+ytOAcoQILbVKjZ40+hHoeop6QU8hsybT4MmK+swkjd9dHlYz6bnpl9CHtaz/tzg5VbmRXmZw7S5CV1vDfqHFfGl+1fWZ3eYy1BSGwvW1i6XSJoXbCxksG1ud6AkRE3v5Y7TPOofv8QbC1A934jr2QXSey/O316vP15v6b9cHx5ul/zHv+Otvj66/Y8A//En);lineShape=1;" vertex="1" parent="1">
                    <mxGeometry x="-494.2149772078574" y="-292.47570048761577" width="164.2126159718182" height="36.827413894498704" as="geometry"/>
                </mxCell>
                <mxCell id="7" value="" style="shape=stencil(lVjLctswDPwaXTF8Ezyn6X9kJk7tqWtnHLdN/r5gNbJFMFpFN1neFQlg8SAH//C2f3rdDc68XS/nn7u/h+frfvDfBucOp/3ucrjK0+AfB//wcr7sflzOv0/P4+/Xp4qsT7/Of+oX3keeIZsqyZmP8UUpFPz/N99H/PFwmuEz2djiI8WyjLeRjG8JlrJdJsiOSm4IXMgGQGDypiUkcnGZ4FO3gidnlgkhkW1tYEM+LROiGB0aQs5UgFeTbMC1hEicQRgMJW4JHq4gG/ClJVgqwEviE2VDKsQOEDLF1q0pQy8VM5l4IwSovSJesi1BPgFsKIFya3RMlICWRMzcpkO0xEAaRb7XSkPE4pDRkkDtloIhg2wQt7aR9h7mgxC43ZKLlJANrFPUZuxW1nGQmgGUUfGtzZI+GO+DwjuMD1nhLdIRU9J4GAKm4jQelDApoc5oPApA6fdvkL2Fcvd9hnhm7R+k0UJF41FBrfguvivf1/4MGJ+TwkeUAWX6+46HCSDx0vbCKlGm8H8Rz5Q37Ycp+i32Sr5o/QSsZ6/141fw2l6oB57KwUxvGJ826Zl1hVvNF7sxH73Ww0q+p24/WM/d/mG9knzR+kf10JqbfV8ruJsJfQbjqbFm8LYW06VwbWIrNbetQbVNYtFx34jByFWzoG/1YPStnbsfJtCWEoVWdzKuZOTW0E1QFivVTYVhNnIlkGrMuhXIUIe2xGEqDbc5U8SKJlkpFmpWdrAbyNyaWrfmAAliolWzsjgaeEm8bpQNDFcImVxrgxwQGBA862OXjNsoDpJfariWQw48RrkpgWfHqAhWsJ34RCyoKrEeQmR4LmgB3cRrGQRdzeqmUIsOsNhOMZ3jQQysHtLuY8yn+O5cOquaCwRV81YXiG6LAUZHeMVB0mTylgDcmtgMn0Emdz2k9kUgiM/w6CrB6KyseGzvpquNdbw83O9RXg7H43gNM/9f37vIq/HOxj/+Aw==);lineShape=1;" vertex="1" parent="1">
                    <mxGeometry x="-494.20582118091306" y="-653.6514069645403" width="146.56932613479057" height="389.2664627099331" as="geometry"/>
                </mxCell>
            </root>
        </mxGraphModel>
    </diagram>
</mxfile>